<svg width="20" height="20" viewBox="0 0 20 20" fill="none" xmlns="http://www.w3.org/2000/svg">
<g id="mdi:apple" clip-path="url(#clip0_324_90)">
<path id="Vector" d="M15.5917 16.25C14.9 17.2834 14.1667 18.2917 13.05 18.3084C11.9333 18.3334 11.575 17.65 10.3083 17.65C9.03333 17.65 8.64166 18.2917 7.58333 18.3334C6.49166 18.375 5.66666 17.2334 4.96666 16.225C3.54166 14.1667 2.45 10.375 3.91666 7.82502C4.64166 6.55835 5.94166 5.75835 7.35 5.73335C8.41666 5.71669 9.43333 6.45835 10.0917 6.45835C10.7417 6.45835 11.975 5.56669 13.2667 5.70002C13.8083 5.72502 15.325 5.91669 16.3 7.35002C16.225 7.40002 14.4917 8.41669 14.5083 10.525C14.5333 13.0417 16.7167 13.8834 16.7417 13.8917C16.7167 13.95 16.3917 15.0917 15.5917 16.25ZM10.8333 2.91669C11.4417 2.22502 12.45 1.70002 13.2833 1.66669C13.3917 2.64169 13 3.62502 12.4167 4.32502C11.8417 5.03335 10.8917 5.58335 9.95833 5.50835C9.83333 4.55002 10.3 3.55002 10.8333 2.91669Z" fill="black"/>
<path id="Vector_2" d="M213.803 167.03C214.245 214.61 255.543 230.443 256 230.645C255.65 231.761 249.401 253.208 234.243 275.361C221.139 294.514 207.538 313.596 186.113 313.991C165.063 314.379 158.293 301.508 134.225 301.508C110.164 301.508 102.643 313.596 82.715 314.379C62.035 315.162 46.287 293.669 33.075 274.586C6.07499 235.553 -14.558 164.286 13.147 116.18C26.91 92.29 51.507 77.163 78.203 76.775C98.51 76.388 117.678 90.437 130.092 90.437C142.498 90.437 165.791 73.542 190.278 76.023C200.528 76.45 229.304 80.163 247.781 107.209C246.291 108.132 213.446 127.253 213.803 167.031M174.24 50.199C185.22 36.909 192.609 18.409 190.593 0C174.767 0.636 155.631 10.546 144.279 23.828C134.106 35.591 125.197 54.417 127.601 72.461C145.241 73.826 163.26 63.497 174.24 50.199Z" fill="black"/>
</g>
<defs>
<clipPath id="clip0_324_90">
<rect width="20" height="20" fill="white"/>
</clipPath>
</defs>
</svg>
