<svg width="211" height="193" viewBox="0 0 211 193" fill="none" xmlns="http://www.w3.org/2000/svg">
<path id="Vector" d="M27.3689 134.995C32.6167 132.321 38.0055 129.929 43.5123 127.83L43.5373 127.82L43.5623 127.811C48.6938 125.945 53.2634 125.5 57.2599 126.415C60.6966 127.202 63.4739 128.942 65.656 131.237C65.4972 130.773 65.3505 130.303 65.2156 129.826L65.2151 129.824C64.1484 126.049 63.8057 121.81 63.9223 116.716L63.924 116.638L63.9292 116.561C64.8581 102.764 70.3682 79.0932 74.3266 67.9697L74.3419 67.9265L74.3584 67.8838C75.2254 65.6355 76.5399 63.204 78.9056 62.0692C79.1221 61.9653 79.3382 61.8761 79.5533 61.8006C78.3332 60.3109 77.4063 58.5984 76.8846 56.7599L76.8835 56.7561C75.9634 53.4988 76.2952 50.0632 77.5175 47.2226C78.725 44.4164 81.001 41.7882 84.2993 40.8539L84.3011 40.8534C88.1577 39.7633 92.0962 41.2447 94.9502 43.2526C97.852 45.294 100.42 48.4081 101.402 51.8789C102.232 54.8137 102.25 57.97 101.178 60.7363C100.071 63.5897 97.8172 65.933 94.4853 66.8763L94.4846 66.8765C93.194 67.2416 91.8923 67.395 90.6108 67.3634C93.6332 71.8486 95.0006 78.4897 93.4382 86.1779C92.8254 90.4578 91.4723 96.3263 90.1776 101.942L90.0775 102.376C88.7157 108.284 87.4464 113.839 86.9743 117.524C86.5655 121.747 86.7644 125.137 87.3818 127.317C87.4824 127.672 87.5801 127.963 87.6717 128.199C88.3743 127.82 89.213 127.146 90.1515 126.044C91.4363 124.537 92.7168 122.45 93.9155 119.891C94.801 118.001 95.6145 115.913 96.338 113.707C97.4886 105.201 99.0043 96.4136 100.742 87.6503C106.724 57.4917 115.389 27.3627 121.102 9.49697L121.104 9.49082C121.911 6.98338 123.694 4.51275 126.435 3.72583L126.444 3.72299C129.093 2.97069 131.779 4.1904 133.673 5.85057C135.705 7.63173 137.418 10.3555 138.431 13.9364C140.068 19.7215 139.512 27.149 136.94 37.5874C135.709 42.6165 134.195 48.344 132.586 54.4323C129.622 65.6465 126.334 78.0848 123.895 89.6382C127.876 90.9506 130.825 93.784 132.943 97.1496C134.079 98.9541 135.007 100.952 135.77 103.032C136.538 101.176 137.223 99.1963 137.823 97.1216C136.341 90.699 136.351 83.5002 137.964 75.8082C141.932 54.1134 153.988 39.3781 165.871 36.0147L165.873 36.0144C168.62 35.2377 171.32 34.8947 174.19 35.663C180.096 37.1335 184.912 39.0973 188.885 42.3409L188.915 42.3649L188.944 42.3896C191.074 44.2073 192.81 47.2796 193.601 50.0354L193.604 50.0478C195.37 56.2841 194.248 65.149 190.865 72.88C187.462 80.6584 181.37 88.1792 172.33 90.74L172.329 90.7403C168.911 91.7079 165.318 91.9625 161.626 91.4496C161.823 93.2615 162.162 95.0574 162.641 96.8204C163.613 100.243 165.053 102.622 166.506 103.943C167.864 105.178 169.119 105.439 170.371 105.085C175.882 103.524 180.598 99.2777 184.532 93.5064C188.445 87.7659 191.345 80.8592 193.328 74.639L193.337 74.6098L193.347 74.5808C193.991 72.6743 195.337 70.0859 198.077 69.3122C201.201 68.43 203.663 70.4643 205.106 72.3368L205.171 72.4203L205.23 72.5076C206.109 73.8024 206.878 75.9731 207.221 78.4317C207.577 80.9919 207.518 84.1811 206.429 87.5561L206.421 87.5809L206.413 87.6056C201.771 101.293 189.349 114.307 174.64 118.673L174.633 118.675C165.79 121.281 157.766 120.442 151.327 116.714C150.352 116.15 149.422 115.524 148.539 114.843C146.275 118.247 143.427 121.694 140.038 124.57C141.979 142.584 139.892 164.15 134.443 177.372L134.437 177.385L134.432 177.398C131.919 183.358 128.365 187.439 122.491 189.1C117.515 190.509 111.871 188.068 107.436 184.296C102.82 180.372 98.7036 174.39 96.617 167.02L96.6168 167.02C94.5568 159.74 93.8405 150.715 94.0479 140.749C92.4136 141.568 90.7393 142.227 89.0488 142.705L27.3689 134.995ZM27.3689 134.995C30.1215 119.904 33.7058 104.558 38.015 86.109C39.5883 79.3734 41.2582 72.224 43.0194 64.5224C45.2896 55.2692 45.2238 48.0914 43.7768 42.9806C42.8461 39.6873 41.1481 36.7892 39.4073 34.881L39.3565 34.8253L39.3033 34.7718C38.5271 33.9914 37.6335 33.2222 36.6371 32.6506C35.6443 32.0811 34.3303 31.5838 32.8183 31.7025C29.4782 31.9649 27.7207 34.8135 26.777 37.3665C23.3538 46.4641 18.1593 66.1885 13.5517 86.4221C8.9372 106.686 4.81865 127.869 3.62182 139.914L3.61834 139.949L3.61557 139.984C3.39424 142.783 3.47401 145.178 4.0002 147.361C4.53698 149.587 5.4923 151.402 6.76579 153.101C7.64654 154.312 9.01052 155.583 10.252 156.66C11.4753 157.721 12.8262 158.801 13.9743 159.719L14.1914 159.892C14.1959 159.896 14.2005 159.899 14.205 159.903C16.3445 161.645 18.6426 162.708 21.4314 162.458C23.8604 162.241 26.215 161.027 28.5126 159.734L28.5439 159.717L28.5749 159.698C33.1264 157.012 39.7114 153.285 46.1624 149.973C52.7145 146.609 58.8036 143.843 62.4969 142.883L62.5338 142.874L62.5706 142.863C64.7535 142.245 67.3014 141.07 68.1793 138.473C68.3725 137.902 68.4558 137.349 68.4591 136.823M27.3689 134.995L68.4591 136.823M68.4591 136.823C69.7999 138.714 71.4708 140.319 73.5096 141.516C77.7911 144.03 83.0938 144.391 89.048 142.705L68.4591 136.823ZM119.946 131.851C120.066 141.173 119.516 150.995 118.549 158.839C118.148 162.087 117.683 164.934 117.181 167.236C116.418 163.609 116.042 158.363 116.074 151.917C116.104 145.801 116.5 138.797 117.197 131.418C118.103 131.625 119.024 131.767 119.946 131.851ZM169.824 64.9516L169.823 64.9554C168.83 67.5787 167.398 70.4248 165.788 72.6948C164.715 74.2076 163.739 75.2159 162.943 75.8209C164.772 68.5915 167.445 62.3336 170.044 57.8113C171.001 56.1448 171.921 54.7621 172.753 53.6748C172.746 53.7262 172.74 53.7781 172.734 53.8304C172.342 56.9681 171.305 61.0551 169.824 64.9516ZM175.339 51.0367C175.339 51.0371 175.332 51.0404 175.319 51.0456C175.333 51.039 175.339 51.0364 175.339 51.0367Z" fill="#445279" stroke="white" stroke-width="7"/>
</svg>
